<mxfile host="app.diagrams.net" modified="2024-01-07T16:27:49.629Z" agent="Mozilla/5.0 (Windows NT 10.0; Win64; x64) AppleWebKit/537.36 (KHTML, like Gecko) Chrome/120.0.0.0 Safari/537.36 Edg/120.0.0.0" etag="kE6HlGiskqvDPvOynOCZ" version="22.1.17" type="device">
  <diagram name="Page-1" id="DKzebG8HpM7GuleSCR6V">
    <mxGraphModel dx="1670" dy="892" grid="1" gridSize="10" guides="1" tooltips="1" connect="1" arrows="1" fold="1" page="1" pageScale="1" pageWidth="850" pageHeight="1100" math="0" shadow="0">
      <root>
        <mxCell id="0" />
        <mxCell id="1" parent="0" />
        <mxCell id="QbFapHZ1ANiK15TPJbGU-5" value="" style="rounded=0;whiteSpace=wrap;html=1;fillColor=#f5f5f5;strokeColor=#666666;fontColor=#333333;" vertex="1" parent="1">
          <mxGeometry x="20" y="40" width="1180" height="1000" as="geometry" />
        </mxCell>
        <mxCell id="QbFapHZ1ANiK15TPJbGU-6" value="" style="whiteSpace=wrap;html=1;aspect=fixed;fillColor=#dae8fc;strokeColor=#6c8ebf;" vertex="1" parent="1">
          <mxGeometry x="160" y="66" width="484" height="484" as="geometry" />
        </mxCell>
        <mxCell id="QbFapHZ1ANiK15TPJbGU-12" value="" style="whiteSpace=wrap;html=1;aspect=fixed;fillColor=#DBF3FC;strokeColor=#6c8ebf;" vertex="1" parent="1">
          <mxGeometry x="680" y="60" width="490" height="490" as="geometry" />
        </mxCell>
        <mxCell id="QbFapHZ1ANiK15TPJbGU-4" value="Farmers, Agronomists, &lt;br&gt;Researchers" style="text;html=1;align=center;verticalAlign=middle;resizable=0;points=[];autosize=1;" vertex="1" parent="1">
          <mxGeometry x="20" y="410" width="140" height="40" as="geometry" />
        </mxCell>
        <mxCell id="QbFapHZ1ANiK15TPJbGU-49" style="edgeStyle=orthogonalEdgeStyle;rounded=0;orthogonalLoop=1;jettySize=auto;html=1;exitX=1;exitY=0.5;exitDx=0;exitDy=0;exitPerimeter=0;entryX=0;entryY=0.5;entryDx=0;entryDy=0;" edge="1" parent="1" source="QbFapHZ1ANiK15TPJbGU-1" target="QbFapHZ1ANiK15TPJbGU-10">
          <mxGeometry relative="1" as="geometry" />
        </mxCell>
        <mxCell id="QbFapHZ1ANiK15TPJbGU-1" value="" style="shape=mxgraph.signs.people.man_1;html=1;pointerEvents=1;fillColor=#000000;strokeColor=none;verticalLabelPosition=bottom;verticalAlign=top;align=center;sketch=0;" vertex="1" parent="1">
          <mxGeometry x="90" y="330" width="30" height="68" as="geometry" />
        </mxCell>
        <mxCell id="QbFapHZ1ANiK15TPJbGU-7" value="&lt;b style=&quot;border-color: var(--border-color);&quot;&gt;&lt;font style=&quot;border-color: var(--border-color); font-size: 18px;&quot;&gt;Frontend (React)&lt;/font&gt;&lt;/b&gt;" style="text;html=1;strokeColor=none;fillColor=none;align=center;verticalAlign=middle;whiteSpace=wrap;rounded=0;" vertex="1" parent="1">
          <mxGeometry x="350" y="100" width="60" height="30" as="geometry" />
        </mxCell>
        <mxCell id="QbFapHZ1ANiK15TPJbGU-10" value="Single page Rendering" style="rounded=1;whiteSpace=wrap;html=1;" vertex="1" parent="1">
          <mxGeometry x="240" y="240" width="120" height="60" as="geometry" />
        </mxCell>
        <mxCell id="QbFapHZ1ANiK15TPJbGU-35" style="edgeStyle=orthogonalEdgeStyle;rounded=0;orthogonalLoop=1;jettySize=auto;html=1;exitX=1;exitY=0.5;exitDx=0;exitDy=0;entryX=0;entryY=0.5;entryDx=0;entryDy=0;" edge="1" parent="1" source="QbFapHZ1ANiK15TPJbGU-11" target="QbFapHZ1ANiK15TPJbGU-16">
          <mxGeometry relative="1" as="geometry" />
        </mxCell>
        <mxCell id="QbFapHZ1ANiK15TPJbGU-45" style="edgeStyle=orthogonalEdgeStyle;rounded=0;orthogonalLoop=1;jettySize=auto;html=1;exitX=0;exitY=0.5;exitDx=0;exitDy=0;entryX=0.75;entryY=1;entryDx=0;entryDy=0;" edge="1" parent="1" source="QbFapHZ1ANiK15TPJbGU-11" target="QbFapHZ1ANiK15TPJbGU-10">
          <mxGeometry relative="1" as="geometry" />
        </mxCell>
        <mxCell id="QbFapHZ1ANiK15TPJbGU-11" value="Chatbot Interface" style="rounded=1;whiteSpace=wrap;html=1;" vertex="1" parent="1">
          <mxGeometry x="450" y="380" width="120" height="60" as="geometry" />
        </mxCell>
        <mxCell id="QbFapHZ1ANiK15TPJbGU-14" value="" style="rounded=0;whiteSpace=wrap;html=1;fillColor=#d5e8d4;strokeColor=#82b366;" vertex="1" parent="1">
          <mxGeometry x="700" y="600" width="480" height="330" as="geometry" />
        </mxCell>
        <mxCell id="QbFapHZ1ANiK15TPJbGU-15" value="&lt;b&gt;&lt;font style=&quot;font-size: 18px;&quot;&gt;Backend (Flask)&lt;/font&gt;&lt;/b&gt;" style="text;html=1;strokeColor=none;fillColor=none;align=center;verticalAlign=middle;whiteSpace=wrap;rounded=0;" vertex="1" parent="1">
          <mxGeometry x="880" y="90" width="60" height="30" as="geometry" />
        </mxCell>
        <mxCell id="QbFapHZ1ANiK15TPJbGU-33" style="edgeStyle=orthogonalEdgeStyle;rounded=0;orthogonalLoop=1;jettySize=auto;html=1;exitX=1;exitY=0.5;exitDx=0;exitDy=0;entryX=0;entryY=0.5;entryDx=0;entryDy=0;" edge="1" parent="1" source="QbFapHZ1ANiK15TPJbGU-16" target="QbFapHZ1ANiK15TPJbGU-17">
          <mxGeometry relative="1" as="geometry" />
        </mxCell>
        <mxCell id="QbFapHZ1ANiK15TPJbGU-37" style="edgeStyle=orthogonalEdgeStyle;rounded=0;orthogonalLoop=1;jettySize=auto;html=1;exitX=0;exitY=0.5;exitDx=0;exitDy=0;" edge="1" parent="1" source="QbFapHZ1ANiK15TPJbGU-16" target="QbFapHZ1ANiK15TPJbGU-11">
          <mxGeometry relative="1" as="geometry" />
        </mxCell>
        <mxCell id="QbFapHZ1ANiK15TPJbGU-16" value="Preprocess&amp;nbsp;&lt;br&gt;Query Text" style="rounded=1;whiteSpace=wrap;html=1;" vertex="1" parent="1">
          <mxGeometry x="690" y="380" width="120" height="60" as="geometry" />
        </mxCell>
        <mxCell id="QbFapHZ1ANiK15TPJbGU-34" style="edgeStyle=orthogonalEdgeStyle;rounded=0;orthogonalLoop=1;jettySize=auto;html=1;exitX=0;exitY=0.5;exitDx=0;exitDy=0;entryX=1;entryY=0.5;entryDx=0;entryDy=0;" edge="1" parent="1" source="QbFapHZ1ANiK15TPJbGU-17" target="QbFapHZ1ANiK15TPJbGU-16">
          <mxGeometry relative="1" as="geometry" />
        </mxCell>
        <mxCell id="QbFapHZ1ANiK15TPJbGU-17" value="chatbot Model" style="rounded=1;whiteSpace=wrap;html=1;" vertex="1" parent="1">
          <mxGeometry x="880" y="380" width="120" height="60" as="geometry" />
        </mxCell>
        <mxCell id="QbFapHZ1ANiK15TPJbGU-40" style="edgeStyle=orthogonalEdgeStyle;rounded=0;orthogonalLoop=1;jettySize=auto;html=1;exitX=0;exitY=0.5;exitDx=0;exitDy=0;entryX=1;entryY=0.5;entryDx=0;entryDy=0;" edge="1" parent="1" source="QbFapHZ1ANiK15TPJbGU-18" target="QbFapHZ1ANiK15TPJbGU-39">
          <mxGeometry relative="1" as="geometry" />
        </mxCell>
        <mxCell id="QbFapHZ1ANiK15TPJbGU-18" value="ML model" style="rounded=1;whiteSpace=wrap;html=1;" vertex="1" parent="1">
          <mxGeometry x="1020" y="190" width="120" height="60" as="geometry" />
        </mxCell>
        <mxCell id="QbFapHZ1ANiK15TPJbGU-31" style="edgeStyle=orthogonalEdgeStyle;rounded=0;orthogonalLoop=1;jettySize=auto;html=1;exitX=0.5;exitY=0;exitDx=0;exitDy=0;" edge="1" parent="1" source="QbFapHZ1ANiK15TPJbGU-19" target="QbFapHZ1ANiK15TPJbGU-17">
          <mxGeometry relative="1" as="geometry" />
        </mxCell>
        <mxCell id="QbFapHZ1ANiK15TPJbGU-19" value="transformer architecture" style="rounded=0;whiteSpace=wrap;html=1;" vertex="1" parent="1">
          <mxGeometry x="880" y="670" width="120" height="60" as="geometry" />
        </mxCell>
        <mxCell id="QbFapHZ1ANiK15TPJbGU-32" style="edgeStyle=orthogonalEdgeStyle;rounded=0;orthogonalLoop=1;jettySize=auto;html=1;exitX=0.5;exitY=0;exitDx=0;exitDy=0;entryX=0.5;entryY=1;entryDx=0;entryDy=0;" edge="1" parent="1" source="QbFapHZ1ANiK15TPJbGU-20" target="QbFapHZ1ANiK15TPJbGU-18">
          <mxGeometry relative="1" as="geometry" />
        </mxCell>
        <mxCell id="QbFapHZ1ANiK15TPJbGU-20" value="ML&amp;nbsp;" style="rounded=0;whiteSpace=wrap;html=1;" vertex="1" parent="1">
          <mxGeometry x="1020" y="670" width="120" height="60" as="geometry" />
        </mxCell>
        <mxCell id="QbFapHZ1ANiK15TPJbGU-25" style="edgeStyle=orthogonalEdgeStyle;rounded=0;orthogonalLoop=1;jettySize=auto;html=1;exitX=0.5;exitY=0;exitDx=0;exitDy=0;entryX=0.5;entryY=1;entryDx=0;entryDy=0;" edge="1" parent="1" source="QbFapHZ1ANiK15TPJbGU-21" target="QbFapHZ1ANiK15TPJbGU-19">
          <mxGeometry relative="1" as="geometry" />
        </mxCell>
        <mxCell id="QbFapHZ1ANiK15TPJbGU-21" value="KCC, farming &lt;br&gt;Dataset" style="rounded=0;whiteSpace=wrap;html=1;" vertex="1" parent="1">
          <mxGeometry x="880" y="770" width="120" height="60" as="geometry" />
        </mxCell>
        <mxCell id="QbFapHZ1ANiK15TPJbGU-23" style="edgeStyle=orthogonalEdgeStyle;rounded=0;orthogonalLoop=1;jettySize=auto;html=1;exitX=0.5;exitY=0;exitDx=0;exitDy=0;entryX=0.5;entryY=1;entryDx=0;entryDy=0;" edge="1" parent="1" source="QbFapHZ1ANiK15TPJbGU-22" target="QbFapHZ1ANiK15TPJbGU-20">
          <mxGeometry relative="1" as="geometry" />
        </mxCell>
        <mxCell id="QbFapHZ1ANiK15TPJbGU-22" value="Yield Dataset" style="rounded=0;whiteSpace=wrap;html=1;" vertex="1" parent="1">
          <mxGeometry x="1020" y="770" width="120" height="60" as="geometry" />
        </mxCell>
        <mxCell id="QbFapHZ1ANiK15TPJbGU-24" value="Trained" style="text;html=1;strokeColor=none;fillColor=none;align=center;verticalAlign=middle;whiteSpace=wrap;rounded=0;" vertex="1" parent="1">
          <mxGeometry x="1080" y="740" width="60" height="30" as="geometry" />
        </mxCell>
        <mxCell id="QbFapHZ1ANiK15TPJbGU-26" value="Finetune" style="text;html=1;strokeColor=none;fillColor=none;align=center;verticalAlign=middle;whiteSpace=wrap;rounded=0;" vertex="1" parent="1">
          <mxGeometry x="950" y="740" width="60" height="30" as="geometry" />
        </mxCell>
        <mxCell id="QbFapHZ1ANiK15TPJbGU-29" style="edgeStyle=orthogonalEdgeStyle;rounded=0;orthogonalLoop=1;jettySize=auto;html=1;exitX=1;exitY=0.5;exitDx=0;exitDy=0;" edge="1" parent="1" source="QbFapHZ1ANiK15TPJbGU-27" target="QbFapHZ1ANiK15TPJbGU-19">
          <mxGeometry relative="1" as="geometry" />
        </mxCell>
        <mxCell id="QbFapHZ1ANiK15TPJbGU-27" value="Llama-2" style="rounded=1;whiteSpace=wrap;html=1;" vertex="1" parent="1">
          <mxGeometry x="740" y="670" width="70" height="60" as="geometry" />
        </mxCell>
        <mxCell id="QbFapHZ1ANiK15TPJbGU-28" value="Importing&lt;br&gt;Pre-Trained models" style="text;html=1;strokeColor=none;fillColor=none;align=center;verticalAlign=middle;whiteSpace=wrap;rounded=0;" vertex="1" parent="1">
          <mxGeometry x="810" y="660" width="70" height="30" as="geometry" />
        </mxCell>
        <mxCell id="QbFapHZ1ANiK15TPJbGU-48" style="edgeStyle=orthogonalEdgeStyle;rounded=0;orthogonalLoop=1;jettySize=auto;html=1;exitX=0;exitY=0.75;exitDx=0;exitDy=0;entryX=0.75;entryY=0;entryDx=0;entryDy=0;" edge="1" parent="1" source="QbFapHZ1ANiK15TPJbGU-39" target="QbFapHZ1ANiK15TPJbGU-10">
          <mxGeometry relative="1" as="geometry" />
        </mxCell>
        <mxCell id="QbFapHZ1ANiK15TPJbGU-64" style="edgeStyle=orthogonalEdgeStyle;rounded=0;orthogonalLoop=1;jettySize=auto;html=1;exitX=1;exitY=0.5;exitDx=0;exitDy=0;entryX=0;entryY=0.5;entryDx=0;entryDy=0;" edge="1" parent="1" source="QbFapHZ1ANiK15TPJbGU-39" target="QbFapHZ1ANiK15TPJbGU-18">
          <mxGeometry relative="1" as="geometry" />
        </mxCell>
        <mxCell id="QbFapHZ1ANiK15TPJbGU-39" value="Yield Prediction" style="rounded=1;whiteSpace=wrap;html=1;" vertex="1" parent="1">
          <mxGeometry x="450" y="150" width="120" height="60" as="geometry" />
        </mxCell>
        <mxCell id="QbFapHZ1ANiK15TPJbGU-44" style="edgeStyle=orthogonalEdgeStyle;rounded=0;orthogonalLoop=1;jettySize=auto;html=1;exitX=0;exitY=0.5;exitDx=0;exitDy=0;" edge="1" parent="1" source="QbFapHZ1ANiK15TPJbGU-41" target="QbFapHZ1ANiK15TPJbGU-42">
          <mxGeometry relative="1" as="geometry" />
        </mxCell>
        <mxCell id="QbFapHZ1ANiK15TPJbGU-41" value="API / Web Scraping" style="rounded=1;whiteSpace=wrap;html=1;" vertex="1" parent="1">
          <mxGeometry x="750" y="260" width="120" height="60" as="geometry" />
        </mxCell>
        <mxCell id="QbFapHZ1ANiK15TPJbGU-47" style="edgeStyle=orthogonalEdgeStyle;rounded=0;orthogonalLoop=1;jettySize=auto;html=1;exitX=0;exitY=0.5;exitDx=0;exitDy=0;entryX=1;entryY=0.5;entryDx=0;entryDy=0;" edge="1" parent="1" source="QbFapHZ1ANiK15TPJbGU-42" target="QbFapHZ1ANiK15TPJbGU-10">
          <mxGeometry relative="1" as="geometry" />
        </mxCell>
        <mxCell id="QbFapHZ1ANiK15TPJbGU-50" style="edgeStyle=orthogonalEdgeStyle;rounded=0;orthogonalLoop=1;jettySize=auto;html=1;exitX=1;exitY=0.5;exitDx=0;exitDy=0;" edge="1" parent="1" source="QbFapHZ1ANiK15TPJbGU-42" target="QbFapHZ1ANiK15TPJbGU-41">
          <mxGeometry relative="1" as="geometry" />
        </mxCell>
        <mxCell id="QbFapHZ1ANiK15TPJbGU-42" value="Weather /&amp;nbsp;gov schemes" style="rounded=1;whiteSpace=wrap;html=1;" vertex="1" parent="1">
          <mxGeometry x="480" y="260" width="120" height="60" as="geometry" />
        </mxCell>
        <mxCell id="QbFapHZ1ANiK15TPJbGU-52" value="&lt;font style=&quot;font-size: 18px;&quot;&gt;&lt;b&gt;Model Training&lt;/b&gt;&lt;/font&gt;" style="text;html=1;strokeColor=none;fillColor=none;align=center;verticalAlign=middle;whiteSpace=wrap;rounded=0;" vertex="1" parent="1">
          <mxGeometry x="710" y="610" width="130" height="30" as="geometry" />
        </mxCell>
        <mxCell id="QbFapHZ1ANiK15TPJbGU-54" value="Query-Response Pipeline" style="text;html=1;strokeColor=none;fillColor=none;align=center;verticalAlign=middle;whiteSpace=wrap;rounded=0;" vertex="1" parent="1">
          <mxGeometry x="580" y="411" width="110" height="39" as="geometry" />
        </mxCell>
        <mxCell id="QbFapHZ1ANiK15TPJbGU-55" value="Live data fetching" style="text;html=1;strokeColor=none;fillColor=none;align=center;verticalAlign=middle;whiteSpace=wrap;rounded=0;" vertex="1" parent="1">
          <mxGeometry x="630" y="255" width="100" height="30" as="geometry" />
        </mxCell>
        <mxCell id="QbFapHZ1ANiK15TPJbGU-56" value="Yield Prediction pipeline" style="text;html=1;strokeColor=none;fillColor=none;align=center;verticalAlign=middle;whiteSpace=wrap;rounded=0;" vertex="1" parent="1">
          <mxGeometry x="860" y="220" width="140" height="30" as="geometry" />
        </mxCell>
        <mxCell id="QbFapHZ1ANiK15TPJbGU-60" value="Component-1" style="text;html=1;strokeColor=none;fillColor=none;align=center;verticalAlign=middle;whiteSpace=wrap;rounded=0;" vertex="1" parent="1">
          <mxGeometry x="350" y="170" width="82" height="30" as="geometry" />
        </mxCell>
        <mxCell id="QbFapHZ1ANiK15TPJbGU-61" value="Component-2" style="text;html=1;strokeColor=none;fillColor=none;align=center;verticalAlign=middle;whiteSpace=wrap;rounded=0;" vertex="1" parent="1">
          <mxGeometry x="400" y="290" width="80" height="30" as="geometry" />
        </mxCell>
        <mxCell id="QbFapHZ1ANiK15TPJbGU-62" value="component-3" style="text;html=1;strokeColor=none;fillColor=none;align=center;verticalAlign=middle;whiteSpace=wrap;rounded=0;" vertex="1" parent="1">
          <mxGeometry x="352" y="411" width="80" height="30" as="geometry" />
        </mxCell>
        <mxCell id="QbFapHZ1ANiK15TPJbGU-63" style="edgeStyle=orthogonalEdgeStyle;rounded=0;orthogonalLoop=1;jettySize=auto;html=1;exitX=0;exitY=0.5;exitDx=0;exitDy=0;entryX=1;entryY=0.5;entryDx=0;entryDy=0;entryPerimeter=0;" edge="1" parent="1" source="QbFapHZ1ANiK15TPJbGU-10" target="QbFapHZ1ANiK15TPJbGU-1">
          <mxGeometry relative="1" as="geometry" />
        </mxCell>
      </root>
    </mxGraphModel>
  </diagram>
</mxfile>
